<?xml version="1.0" encoding="utf-8"?>
<!-- Generator: Adobe Illustrator 28.0.0, SVG Export Plug-In . SVG Version: 6.00 Build 0)  -->
<svg version="1.1" id="Layer_1" xmlns="http://www.w3.org/2000/svg" xmlns:xlink="http://www.w3.org/1999/xlink" x="0px" y="0px"
	 viewBox="0 0 60 60" style="enable-background:new 0 0 60 60;" xml:space="preserve">
<style type="text/css">
	.st0{fill:#B5D8F2;}
	.st1{fill:#61D2B4;}
	.st2{fill:#F5D10A;}
	.st3{fill:#FFFFFF;stroke:#000000;stroke-miterlimit:10;}
</style>
<g>
	<g>
		<g>
			<path class="st0" d="M30,15.9c0.9,0,1.7,0.1,2.6,0.2l-9.4-9.4c-0.1-0.1-0.2-0.2-0.2-0.3L1.1,28.3c-0.9,0.9-0.9,2.5,0,3.4l3.6,3.6
				c0,0,0.1-0.1,0.1-0.1L20.1,20C22.7,17.4,26.2,15.9,30,15.9z"/>
		</g>
		<g>
			<path class="st1" d="M34.7,14.8l2.8-2.1c0.5-0.4,1.1-0.6,1.7-0.6c0.9,0,1.7,0.5,2.1,1.3c0,0,0,0,0,0c0.2,0.5,0.5,1.5-0.4,2.7
				c0,0,0,0,0,0l-2.2,2.7l1.2,1.2c3.2,3.3,4.7,8,3.8,12.6l9.6-9.6c0,0,0.1-0.1,0.1-0.1L31.7,1.1c-0.5-0.5-1.1-0.7-1.7-0.7
				s-1.3,0.3-1.7,0.7l-3.7,3.7c0.1,0.1,0.2,0.1,0.3,0.2L34.7,14.8z"/>
		</g>
		<g>
			<path class="st1" d="M25.2,45.2l-2.7,2.1c-0.4,0.3-0.9,0.6-1.7,0.6c0,0,0,0,0,0c0,0,0,0,0,0c0,0-0.1,0-0.1,0
				c-0.8,0-1.6-0.5-2-1.3c0,0,0,0,0-0.1c-0.4-0.9-0.3-1.9,0.4-2.8l2.1-2.7l-1.3-1.3c-3.2-3.3-4.6-7.9-3.8-12.4L6.6,37
				c0,0-0.1,0.1-0.1,0.1l21.8,21.8c0.5,0.5,1.1,0.7,1.7,0.7s1.3-0.2,1.7-0.7l3.6-3.6c-0.1-0.1-0.3-0.1-0.4-0.3L25.2,45.2z"/>
		</g>
		<g>
			<path class="st0" d="M58.9,28.3l-3.6-3.6c0,0-0.1,0.1-0.1,0.1L39.9,40.1c-2.7,2.6-6.2,4.1-10,4.1c-0.9,0-1.7-0.1-2.6-0.2l9.4,9.3
				c0.1,0.1,0.2,0.2,0.2,0.4l21.9-21.9C59.8,30.8,59.8,29.2,58.9,28.3z"/>
		</g>
	</g>
	<g>
		<path class="st2" d="M39.4,14.9l-9,11.4l0.3,0.5c0.5,0.6,1.9,2.7,4.7,6.9c0.2,0.2,0.2,1.1-0.2,1.4l-14,10.7
			C21.1,45.9,21,46,20.8,46c0,0,0,0,0,0c0,0,0,0,0,0c-0.1,0-0.3-0.1-0.3-0.2c0-0.1-0.1-0.3,0.2-0.7l8.9-11.3l-5.1-7.3
			c-0.3-0.5-0.2-1.1,0.2-1.5l14-10.8c0.2-0.2,0.4-0.2,0.5-0.2c0.2,0,0.3,0.1,0.4,0.2C39.7,14.5,39.6,14.6,39.4,14.9z"/>
	</g>
</g>
<rect x="5" y="3.4" class="st3" width="50.2" height="50.2"/>
</svg>
